<mxfile host="65bd71144e" pages="3">
    <diagram name="Dashboard" id="oFiFHliOJVEC5lQbWdvC">
        <mxGraphModel dx="734" dy="745" grid="1" gridSize="10" guides="1" tooltips="1" connect="1" arrows="1" fold="1" page="1" pageScale="1" pageWidth="827" pageHeight="1169" background="none" math="0" shadow="0">
            <root>
                <mxCell id="0"/>
                <mxCell id="1" parent="0"/>
                <mxCell id="pwLdS7aeoMOx9MGYUbha-2" value="" style="rounded=0;whiteSpace=wrap;html=1;labelBackgroundColor=#CCCCCC;" parent="1" vertex="1">
                    <mxGeometry x="14" y="40" width="800" height="500" as="geometry"/>
                </mxCell>
                <mxCell id="pwLdS7aeoMOx9MGYUbha-3" value="&lt;b style=&quot;font-size: 16px;&quot;&gt;&lt;u style=&quot;font-size: 16px;&quot;&gt;Übungs-App&lt;/u&gt;&lt;/b&gt;" style="rounded=1;whiteSpace=wrap;html=1;fontFamily=Verdana;fontSize=16;" parent="1" vertex="1">
                    <mxGeometry x="324" y="50" width="180" height="70" as="geometry"/>
                </mxCell>
                <mxCell id="pwLdS7aeoMOx9MGYUbha-4" value="Mathe" style="rounded=1;whiteSpace=wrap;html=1;fontFamily=Verdana;fontSize=16;" parent="1" vertex="1">
                    <mxGeometry x="24" y="170" width="100" height="50" as="geometry"/>
                </mxCell>
                <mxCell id="pwLdS7aeoMOx9MGYUbha-7" value="IT" style="rounded=1;whiteSpace=wrap;html=1;fontFamily=Verdana;fontSize=16;" parent="1" vertex="1">
                    <mxGeometry x="374" y="170" width="100" height="50" as="geometry"/>
                </mxCell>
                <mxCell id="pwLdS7aeoMOx9MGYUbha-8" value="Chemie" style="rounded=1;whiteSpace=wrap;html=1;fontFamily=Verdana;fontSize=16;" parent="1" vertex="1">
                    <mxGeometry x="264" y="170" width="100" height="50" as="geometry"/>
                </mxCell>
                <mxCell id="pwLdS7aeoMOx9MGYUbha-9" value="Englisch" style="rounded=1;whiteSpace=wrap;html=1;fontFamily=Verdana;fontSize=16;" parent="1" vertex="1">
                    <mxGeometry x="24" y="230" width="100" height="50" as="geometry"/>
                </mxCell>
                <mxCell id="pwLdS7aeoMOx9MGYUbha-10" value="Hauptfächer" style="text;html=1;align=center;verticalAlign=middle;whiteSpace=wrap;rounded=0;fontSize=16;fontFamily=Verdana;fontStyle=1" parent="1" vertex="1">
                    <mxGeometry x="74" y="130" width="110" height="40" as="geometry"/>
                </mxCell>
                <mxCell id="pwLdS7aeoMOx9MGYUbha-11" value="Nebenfächer" style="text;html=1;align=center;verticalAlign=middle;whiteSpace=wrap;rounded=0;fontSize=16;fontFamily=Verdana;fontStyle=1" parent="1" vertex="1">
                    <mxGeometry x="312" y="130" width="116" height="40" as="geometry"/>
                </mxCell>
                <mxCell id="pwLdS7aeoMOx9MGYUbha-12" value="&amp;nbsp;&lt;font color=&quot;#07eaed&quot;&gt;Dashboard&lt;/font&gt;&lt;span style=&quot;white-space: pre;&quot;&gt;&#9;&lt;/span&gt;&lt;span style=&quot;white-space: pre;&quot;&gt;&#9;&lt;/span&gt;&lt;span style=&quot;white-space: pre;&quot;&gt;&#9;&lt;/span&gt;&lt;span style=&quot;white-space: pre;&quot;&gt;&#9;&lt;/span&gt;&lt;span style=&quot;white-space: pre;&quot;&gt;&#9;&lt;/span&gt;&lt;span style=&quot;white-space: pre;&quot;&gt;&#9;&lt;/span&gt;&lt;span style=&quot;white-space: pre;&quot;&gt;&#9;&lt;/span&gt;&amp;nbsp; Scoreboard&lt;span style=&quot;white-space: pre;&quot;&gt;&#9;&lt;/span&gt;&lt;span style=&quot;white-space: pre;&quot;&gt;&#9;&lt;span style=&quot;white-space: pre;&quot;&gt;&#9;&lt;/span&gt;&lt;/span&gt;&lt;span style=&quot;white-space: pre;&quot;&gt;&#9;&lt;/span&gt;&lt;span style=&quot;white-space: pre;&quot;&gt;&#9;&lt;/span&gt;&lt;span style=&quot;white-space: pre;&quot;&gt;&#9;&lt;/span&gt;&lt;span style=&quot;white-space: pre;&quot;&gt;&#9;&lt;span style=&quot;white-space: pre;&quot;&gt;&#9;&lt;/span&gt; &lt;/span&gt;&amp;nbsp; Profil" style="rounded=0;whiteSpace=wrap;html=1;fontSize=14;fontFamily=Verdana;fontStyle=1;align=left;" parent="1" vertex="1">
                    <mxGeometry x="14" y="490" width="800" height="50" as="geometry"/>
                </mxCell>
                <mxCell id="tdWSjw-FH0lzUvVk8Zl1-1" value="" style="rounded=0;whiteSpace=wrap;html=1;" parent="1" vertex="1">
                    <mxGeometry x="14" y="600" width="800" height="500" as="geometry"/>
                </mxCell>
                <mxCell id="tdWSjw-FH0lzUvVk8Zl1-2" value="&lt;b style=&quot;font-size: 16px;&quot;&gt;&lt;u style=&quot;font-size: 16px;&quot;&gt;Mathe&lt;/u&gt;&lt;/b&gt;" style="rounded=1;whiteSpace=wrap;html=1;fontFamily=Verdana;fontSize=16;" parent="1" vertex="1">
                    <mxGeometry x="324" y="610" width="180" height="70" as="geometry"/>
                </mxCell>
                <mxCell id="tdWSjw-FH0lzUvVk8Zl1-11" value="&amp;nbsp;&lt;font color=&quot;#07eaed&quot;&gt;Dashboard&lt;/font&gt;&lt;span style=&quot;white-space: pre;&quot;&gt;&#9;&lt;/span&gt;&lt;span style=&quot;white-space: pre;&quot;&gt;&#9;&lt;/span&gt;&lt;span style=&quot;white-space: pre;&quot;&gt;&#9;&lt;/span&gt;&lt;span style=&quot;white-space: pre;&quot;&gt;&#9;&lt;/span&gt;&lt;span style=&quot;white-space: pre;&quot;&gt;&#9;&lt;/span&gt;&lt;span style=&quot;white-space: pre;&quot;&gt;&#9;&lt;/span&gt;&lt;span style=&quot;white-space: pre;&quot;&gt;&#9;&lt;/span&gt;&amp;nbsp; Scoreboard&lt;span style=&quot;white-space: pre;&quot;&gt;&#9;&lt;/span&gt;&lt;span style=&quot;white-space: pre;&quot;&gt;&#9;&lt;span style=&quot;white-space: pre;&quot;&gt;&#9;&lt;/span&gt;&lt;/span&gt;&lt;span style=&quot;white-space: pre;&quot;&gt;&#9;&lt;/span&gt;&lt;span style=&quot;white-space: pre;&quot;&gt;&#9;&lt;/span&gt;&lt;span style=&quot;white-space: pre;&quot;&gt;&#9;&lt;/span&gt;&lt;span style=&quot;white-space: pre;&quot;&gt;&#9;&lt;span style=&quot;white-space: pre;&quot;&gt;&#9;&lt;/span&gt; &lt;/span&gt;&amp;nbsp; Profil" style="rounded=0;whiteSpace=wrap;html=1;fontSize=14;fontFamily=Verdana;fontStyle=1;align=left;" parent="1" vertex="1">
                    <mxGeometry x="14" y="1050" width="800" height="50" as="geometry"/>
                </mxCell>
                <mxCell id="tdWSjw-FH0lzUvVk8Zl1-14" value="Klasse" style="text;html=1;align=center;verticalAlign=middle;whiteSpace=wrap;rounded=0;fontFamily=Verdana;fontSize=16;fontStyle=1" parent="1" vertex="1">
                    <mxGeometry x="74" y="690" width="110" height="40" as="geometry"/>
                </mxCell>
                <mxCell id="tdWSjw-FH0lzUvVk8Zl1-15" value="5." style="rounded=1;whiteSpace=wrap;html=1;fontSize=16;fontFamily=Verdana;fontStyle=0" parent="1" vertex="1">
                    <mxGeometry x="24" y="730" width="100" height="50" as="geometry"/>
                </mxCell>
                <mxCell id="tdWSjw-FH0lzUvVk8Zl1-16" value="6." style="rounded=1;whiteSpace=wrap;html=1;fontSize=16;fontFamily=Verdana;fontStyle=0" parent="1" vertex="1">
                    <mxGeometry x="134" y="730" width="100" height="50" as="geometry"/>
                </mxCell>
                <mxCell id="tdWSjw-FH0lzUvVk8Zl1-17" value="7." style="rounded=1;whiteSpace=wrap;html=1;fontSize=16;fontFamily=Verdana;fontStyle=0" parent="1" vertex="1">
                    <mxGeometry x="24" y="790" width="100" height="50" as="geometry"/>
                </mxCell>
                <mxCell id="tdWSjw-FH0lzUvVk8Zl1-18" value="8." style="rounded=1;whiteSpace=wrap;html=1;fontSize=16;fontFamily=Verdana;fontStyle=0" parent="1" vertex="1">
                    <mxGeometry x="134" y="790" width="100" height="50" as="geometry"/>
                </mxCell>
                <mxCell id="tdWSjw-FH0lzUvVk8Zl1-19" value="9." style="rounded=1;whiteSpace=wrap;html=1;fontSize=16;fontFamily=Verdana;fontStyle=0" parent="1" vertex="1">
                    <mxGeometry x="24" y="850" width="100" height="50" as="geometry"/>
                </mxCell>
                <mxCell id="tdWSjw-FH0lzUvVk8Zl1-20" value="10." style="rounded=1;whiteSpace=wrap;html=1;fontSize=16;fontFamily=Verdana;fontStyle=0" parent="1" vertex="1">
                    <mxGeometry x="134" y="850" width="100" height="50" as="geometry"/>
                </mxCell>
                <mxCell id="G1X1v5CdAxwcbdsa7rgu-1" value="" style="rounded=0;whiteSpace=wrap;html=1;" parent="1" vertex="1">
                    <mxGeometry x="841" y="600" width="800" height="500" as="geometry"/>
                </mxCell>
                <mxCell id="G1X1v5CdAxwcbdsa7rgu-11" value="&amp;nbsp;&lt;font color=&quot;#07eaed&quot;&gt;Dashboard&lt;/font&gt;&lt;span style=&quot;white-space: pre;&quot;&gt;&#9;&lt;/span&gt;&lt;span style=&quot;white-space: pre;&quot;&gt;&#9;&lt;/span&gt;&lt;span style=&quot;white-space: pre;&quot;&gt;&#9;&lt;/span&gt;&lt;span style=&quot;white-space: pre;&quot;&gt;&#9;&lt;/span&gt;&lt;span style=&quot;white-space: pre;&quot;&gt;&#9;&lt;/span&gt;&lt;span style=&quot;white-space: pre;&quot;&gt;&#9;&lt;/span&gt;&lt;span style=&quot;white-space: pre;&quot;&gt;&#9;&lt;/span&gt;&amp;nbsp; Scoreboard&lt;span style=&quot;white-space: pre;&quot;&gt;&#9;&lt;/span&gt;&lt;span style=&quot;white-space: pre;&quot;&gt;&#9;&lt;span style=&quot;white-space: pre;&quot;&gt;&#9;&lt;/span&gt;&lt;/span&gt;&lt;span style=&quot;white-space: pre;&quot;&gt;&#9;&lt;/span&gt;&lt;span style=&quot;white-space: pre;&quot;&gt;&#9;&lt;/span&gt;&lt;span style=&quot;white-space: pre;&quot;&gt;&#9;&lt;/span&gt;&lt;span style=&quot;white-space: pre;&quot;&gt;&#9;&lt;span style=&quot;white-space: pre;&quot;&gt;&#9;&lt;/span&gt; &lt;/span&gt;&amp;nbsp; Profil" style="rounded=0;whiteSpace=wrap;html=1;fontSize=14;fontFamily=Verdana;fontStyle=1;align=left;" parent="1" vertex="1">
                    <mxGeometry x="841" y="1050" width="800" height="50" as="geometry"/>
                </mxCell>
                <mxCell id="tOOVlnR7M2Zq19QkoBYp-1" value="&lt;h1 style=&quot;line-height: 80%;&quot;&gt;&lt;u style=&quot;&quot;&gt;&lt;font style=&quot;font-size: 22px;&quot;&gt;Aufgabe 1.1&lt;/font&gt;&lt;/u&gt;&lt;/h1&gt;&lt;p&gt;&lt;span style=&quot;font-size: 18px;&quot;&gt;2y-4x = 4&lt;/span&gt;&lt;/p&gt;" style="rounded=1;whiteSpace=wrap;html=1;arcSize=10;fontFamily=Verdana;align=center;labelBackgroundColor=none;labelBorderColor=none;textShadow=0;verticalAlign=top;spacing=10;spacingTop=-5;spacingLeft=10;" parent="1" vertex="1">
                    <mxGeometry x="861" y="620" width="760" height="410" as="geometry"/>
                </mxCell>
                <mxCell id="tOOVlnR7M2Zq19QkoBYp-2" value="Punkte: 0/10" style="rounded=1;whiteSpace=wrap;html=1;fontFamily=Verdana;fontStyle=1;fontSize=16;arcSize=43;" parent="1" vertex="1">
                    <mxGeometry x="1500" y="630" width="110" height="50" as="geometry"/>
                </mxCell>
                <mxCell id="tOOVlnR7M2Zq19QkoBYp-4" value="Zeit:&lt;div&gt;0:00&lt;/div&gt;" style="rounded=1;whiteSpace=wrap;html=1;fontFamily=Verdana;fontStyle=1;fontSize=16;arcSize=43;" parent="1" vertex="1">
                    <mxGeometry x="870" y="630" width="110" height="50" as="geometry"/>
                </mxCell>
                <mxCell id="tOOVlnR7M2Zq19QkoBYp-6" value="" style="rounded=0;whiteSpace=wrap;html=1;" parent="1" vertex="1">
                    <mxGeometry x="841" y="40" width="800" height="500" as="geometry"/>
                </mxCell>
                <mxCell id="tOOVlnR7M2Zq19QkoBYp-7" value="&lt;b style=&quot;font-size: 16px;&quot;&gt;&lt;u style=&quot;font-size: 16px;&quot;&gt;Mathe: 9 Klasse&lt;/u&gt;&lt;/b&gt;" style="rounded=1;whiteSpace=wrap;html=1;fontFamily=Verdana;fontSize=16;" parent="1" vertex="1">
                    <mxGeometry x="1151" y="50" width="180" height="70" as="geometry"/>
                </mxCell>
                <mxCell id="tOOVlnR7M2Zq19QkoBYp-9" value="Thema" style="text;html=1;align=center;verticalAlign=middle;whiteSpace=wrap;rounded=0;fontFamily=Verdana;fontSize=16;fontStyle=1" parent="1" vertex="1">
                    <mxGeometry x="850" y="130" width="780" height="40" as="geometry"/>
                </mxCell>
                <mxCell id="tOOVlnR7M2Zq19QkoBYp-10" value="1.1 Lineare Gleichungen mit zwei Variablen" style="rounded=1;whiteSpace=wrap;html=1;fontSize=16;fontFamily=Verdana;fontStyle=0;align=left;spacingLeft=5;" parent="1" vertex="1">
                    <mxGeometry x="851" y="170" width="779" height="40" as="geometry"/>
                </mxCell>
                <mxCell id="tOOVlnR7M2Zq19QkoBYp-16" value="Dashboard, Seite 1, Fach wählen" style="text;html=1;align=center;verticalAlign=middle;whiteSpace=wrap;rounded=0;fontFamily=Verdana;fontStyle=1;fontSize=20;" parent="1" vertex="1">
                    <mxGeometry width="800" height="30" as="geometry"/>
                </mxCell>
                <mxCell id="tOOVlnR7M2Zq19QkoBYp-17" value="Dashboard, Seite 2, Klasse wählen" style="text;html=1;align=center;verticalAlign=middle;whiteSpace=wrap;rounded=0;fontFamily=Verdana;fontStyle=1;fontSize=20;" parent="1" vertex="1">
                    <mxGeometry x="14" y="560" width="800" height="30" as="geometry"/>
                </mxCell>
                <mxCell id="tOOVlnR7M2Zq19QkoBYp-18" value="Dashboard, Seite 3, Thema wählen" style="text;html=1;align=center;verticalAlign=middle;whiteSpace=wrap;rounded=0;fontFamily=Verdana;fontStyle=1;fontSize=20;" parent="1" vertex="1">
                    <mxGeometry x="840" width="800" height="30" as="geometry"/>
                </mxCell>
                <mxCell id="tOOVlnR7M2Zq19QkoBYp-19" value="Dashboard, Seite 4, Aufgabe bearbeiten" style="text;html=1;align=center;verticalAlign=middle;whiteSpace=wrap;rounded=0;fontFamily=Verdana;fontStyle=1;fontSize=20;" parent="1" vertex="1">
                    <mxGeometry x="840" y="560" width="800" height="30" as="geometry"/>
                </mxCell>
                <mxCell id="4za2jN28L8hQjHTKXpbQ-4" value="Deutsch" style="rounded=1;whiteSpace=wrap;html=1;fontFamily=Verdana;fontSize=16;" parent="1" vertex="1">
                    <mxGeometry x="134" y="170" width="100" height="50" as="geometry"/>
                </mxCell>
                <mxCell id="4za2jN28L8hQjHTKXpbQ-5" value="Physik" style="rounded=1;whiteSpace=wrap;html=1;fontFamily=Verdana;fontSize=16;" parent="1" vertex="1">
                    <mxGeometry x="134" y="230" width="100" height="50" as="geometry"/>
                </mxCell>
                <mxCell id="4za2jN28L8hQjHTKXpbQ-6" value="1.2 Lineares Gleichungssystem LGS" style="rounded=1;whiteSpace=wrap;html=1;fontSize=16;fontFamily=Verdana;fontStyle=0;align=left;spacingLeft=5;" parent="1" vertex="1">
                    <mxGeometry x="850.5" y="210" width="779" height="40" as="geometry"/>
                </mxCell>
                <mxCell id="t7bzZydx3kvAN1A6ZVQw-1" value="1.3 Lösarbeit linearer Gleichungssysteme" style="rounded=1;whiteSpace=wrap;html=1;fontSize=16;fontFamily=Verdana;fontStyle=0;align=left;spacingLeft=5;" parent="1" vertex="1">
                    <mxGeometry x="851.5" y="250" width="779" height="40" as="geometry"/>
                </mxCell>
                <mxCell id="t7bzZydx3kvAN1A6ZVQw-2" value="1.4 Das Gleichsetzungsverfahren" style="rounded=1;whiteSpace=wrap;html=1;fontSize=16;fontFamily=Verdana;fontStyle=0;align=left;spacingLeft=5;" parent="1" vertex="1">
                    <mxGeometry x="851.5" y="290" width="779" height="40" as="geometry"/>
                </mxCell>
                <mxCell id="t7bzZydx3kvAN1A6ZVQw-3" value="1.5 Das Einsetzungsverfahren" style="rounded=1;whiteSpace=wrap;html=1;fontSize=16;fontFamily=Verdana;fontStyle=0;align=left;spacingLeft=5;" parent="1" vertex="1">
                    <mxGeometry x="851" y="330" width="779" height="40" as="geometry"/>
                </mxCell>
                <mxCell id="t7bzZydx3kvAN1A6ZVQw-4" value="1.6 Das Additionsverfahren" style="rounded=1;whiteSpace=wrap;html=1;fontSize=16;fontFamily=Verdana;fontStyle=0;align=left;spacingLeft=5;" parent="1" vertex="1">
                    <mxGeometry x="850" y="370" width="779" height="40" as="geometry"/>
                </mxCell>
                <mxCell id="t7bzZydx3kvAN1A6ZVQw-5" value="1.7 LGS mit dem GTR lösen" style="rounded=1;whiteSpace=wrap;html=1;fontSize=16;fontFamily=Verdana;fontStyle=0;align=left;spacingLeft=5;" parent="1" vertex="1">
                    <mxGeometry x="850" y="410" width="779" height="40" as="geometry"/>
                </mxCell>
                <mxCell id="t7bzZydx3kvAN1A6ZVQw-6" value="2.1 Die Quadratwurzel" style="rounded=1;whiteSpace=wrap;html=1;fontSize=16;fontFamily=Verdana;fontStyle=0;align=left;spacingLeft=5;" parent="1" vertex="1">
                    <mxGeometry x="850" y="460" width="779" height="40" as="geometry"/>
                </mxCell>
                <mxCell id="tOOVlnR7M2Zq19QkoBYp-8" value="&amp;nbsp;&lt;font color=&quot;#07eaed&quot;&gt;Dashboard&lt;/font&gt;&lt;span style=&quot;white-space: pre;&quot;&gt;&#9;&lt;/span&gt;&lt;span style=&quot;white-space: pre;&quot;&gt;&#9;&lt;/span&gt;&lt;span style=&quot;white-space: pre;&quot;&gt;&#9;&lt;/span&gt;&lt;span style=&quot;white-space: pre;&quot;&gt;&#9;&lt;/span&gt;&lt;span style=&quot;white-space: pre;&quot;&gt;&#9;&lt;/span&gt;&lt;span style=&quot;white-space: pre;&quot;&gt;&#9;&lt;/span&gt;&lt;span style=&quot;white-space: pre;&quot;&gt;&#9;&lt;/span&gt;&amp;nbsp; Scoreboard&lt;span style=&quot;white-space: pre;&quot;&gt;&#9;&lt;/span&gt;&lt;span style=&quot;white-space: pre;&quot;&gt;&#9;&lt;span style=&quot;white-space: pre;&quot;&gt;&#9;&lt;/span&gt;&lt;/span&gt;&lt;span style=&quot;white-space: pre;&quot;&gt;&#9;&lt;/span&gt;&lt;span style=&quot;white-space: pre;&quot;&gt;&#9;&lt;/span&gt;&lt;span style=&quot;white-space: pre;&quot;&gt;&#9;&lt;/span&gt;&lt;span style=&quot;white-space: pre;&quot;&gt;&#9;&lt;span style=&quot;white-space: pre;&quot;&gt;&#9;&lt;/span&gt; &lt;/span&gt;&amp;nbsp; Profil" style="rounded=0;whiteSpace=wrap;html=1;fontSize=14;fontFamily=Verdana;fontStyle=1;align=left;" parent="1" vertex="1">
                    <mxGeometry x="841" y="490" width="800" height="50" as="geometry"/>
                </mxCell>
                <mxCell id="t7bzZydx3kvAN1A6ZVQw-8" value="Eingabe: ..." style="rounded=1;whiteSpace=wrap;html=1;fontSize=16;shadow=0;glass=0;comic=0;align=left;verticalAlign=top;spacing=10;spacingLeft=5;spacingTop=2;" parent="1" vertex="1">
                    <mxGeometry x="880" y="720" width="720" height="290" as="geometry"/>
                </mxCell>
            </root>
        </mxGraphModel>
    </diagram>
    <diagram id="hc-4XvuTNuszl_zKauQF" name="Scoreboard">
        <mxGraphModel dx="607" dy="884" grid="1" gridSize="10" guides="1" tooltips="1" connect="1" arrows="1" fold="1" page="1" pageScale="1" pageWidth="827" pageHeight="1169" math="0" shadow="0">
            <root>
                <mxCell id="0"/>
                <mxCell id="1" parent="0"/>
                <mxCell id="_0E7CPGjvZ48TcSPapoJ-1" value="" style="rounded=0;whiteSpace=wrap;html=1;" parent="1" vertex="1">
                    <mxGeometry x="841" y="40" width="800" height="500" as="geometry"/>
                </mxCell>
                <mxCell id="_0E7CPGjvZ48TcSPapoJ-2" value="&lt;b&gt;&lt;u&gt;Scoreboard&lt;/u&gt;&lt;/b&gt;" style="rounded=1;whiteSpace=wrap;html=1;fontFamily=Verdana;fontSize=14;" parent="1" vertex="1">
                    <mxGeometry x="1151" y="50" width="180" height="60" as="geometry"/>
                </mxCell>
                <mxCell id="_0E7CPGjvZ48TcSPapoJ-3" value="&amp;nbsp;Dashboard&lt;span style=&quot;white-space: pre;&quot;&gt;&#9;&lt;/span&gt;&lt;span style=&quot;white-space: pre;&quot;&gt;&#9;&lt;/span&gt;&lt;span style=&quot;white-space: pre;&quot;&gt;&#9;&lt;/span&gt;&lt;span style=&quot;white-space: pre;&quot;&gt;&#9;&lt;/span&gt;&lt;span style=&quot;white-space: pre;&quot;&gt;&#9;&lt;/span&gt;&lt;span style=&quot;white-space: pre;&quot;&gt;&#9;&lt;/span&gt;&lt;span style=&quot;white-space: pre;&quot;&gt;&#9;&lt;/span&gt;&amp;nbsp; &lt;font color=&quot;#07eaed&quot;&gt;Scoreboard&lt;/font&gt;&lt;span style=&quot;white-space: pre;&quot;&gt;&#9;&lt;/span&gt;&lt;span style=&quot;white-space: pre;&quot;&gt;&#9;&lt;span style=&quot;white-space: pre;&quot;&gt;&#9;&lt;/span&gt;&lt;/span&gt;&lt;span style=&quot;white-space: pre;&quot;&gt;&#9;&lt;/span&gt;&lt;span style=&quot;white-space: pre;&quot;&gt;&#9;&lt;/span&gt;&lt;span style=&quot;white-space: pre;&quot;&gt;&#9;&lt;/span&gt;&lt;span style=&quot;white-space: pre;&quot;&gt;&#9;&lt;span style=&quot;white-space: pre;&quot;&gt;&#9;&lt;/span&gt; &lt;/span&gt;&amp;nbsp; Profil" style="rounded=0;whiteSpace=wrap;html=1;fontSize=14;fontFamily=Verdana;fontStyle=1;align=left;" parent="1" vertex="1">
                    <mxGeometry x="841" y="490" width="800" height="50" as="geometry"/>
                </mxCell>
                <mxCell id="_0E7CPGjvZ48TcSPapoJ-4" value="&lt;font style=&quot;font-size: 14px;&quot;&gt;&amp;nbsp; Position&lt;span style=&quot;white-space: pre;&quot;&gt;&#9;&lt;span style=&quot;white-space: pre;&quot;&gt;&#9;&lt;/span&gt;Name&lt;span style=&quot;white-space: pre;&quot;&gt;&#9;&lt;/span&gt;&lt;span style=&quot;white-space: pre;&quot;&gt;&#9;&lt;/span&gt;&lt;span style=&quot;white-space: pre;&quot;&gt;&#9;&lt;/span&gt;&lt;span style=&quot;white-space: pre;&quot;&gt;&#9;&lt;/span&gt;&lt;span style=&quot;white-space: pre;&quot;&gt;&#9;&lt;span style=&quot;white-space: pre;&quot;&gt;&#9;&lt;/span&gt;&lt;span style=&quot;white-space: pre;&quot;&gt;&#9;&lt;/span&gt;&lt;span style=&quot;white-space: pre;&quot;&gt;&#9;&lt;/span&gt;     Zeit&lt;span style=&quot;white-space: pre;&quot;&gt;&#9;&lt;/span&gt;&lt;span style=&quot;white-space: pre;&quot;&gt;&#9;&lt;/span&gt;&lt;span style=&quot;white-space: pre;&quot;&gt;&#9;&lt;span style=&quot;white-space: pre;&quot;&gt;&#9;&lt;span style=&quot;white-space: pre;&quot;&gt;&#9;&lt;/span&gt;&lt;/span&gt;&lt;/span&gt;&lt;/span&gt;Punkte&lt;/span&gt;&lt;/font&gt;" style="rounded=1;whiteSpace=wrap;html=1;align=left;fontSize=14;fontFamily=Verdana;fontStyle=1" parent="1" vertex="1">
                    <mxGeometry x="852" y="130" width="780" height="30" as="geometry"/>
                </mxCell>
                <mxCell id="_0E7CPGjvZ48TcSPapoJ-5" value="&amp;nbsp; &lt;span style=&quot;white-space: pre;&quot;&gt;&#9;&lt;/span&gt;1.&lt;span style=&quot;white-space: pre;&quot;&gt;&#9;&lt;span style=&quot;white-space: pre;&quot;&gt;&#9;&lt;/span&gt;Max Mustermann&lt;span style=&quot;white-space: pre;&quot;&gt;&#9;&lt;/span&gt;&lt;span style=&quot;white-space: pre;&quot;&gt;&#9;&lt;/span&gt;&lt;span style=&quot;white-space: pre;&quot;&gt;&#9;&lt;/span&gt;&lt;span style=&quot;white-space: pre;&quot;&gt;&#9;&lt;/span&gt;&lt;span style=&quot;white-space: pre;&quot;&gt;&lt;span style=&quot;white-space: pre;&quot;&gt;&#9;&lt;/span&gt;&lt;span style=&quot;white-space: pre;&quot;&gt;&#9;&lt;/span&gt;1:20 Min.&lt;span style=&quot;white-space: pre;&quot;&gt;&#9;&lt;/span&gt;&lt;span style=&quot;white-space: pre;&quot;&gt;&#9;&lt;span style=&quot;white-space: pre;&quot;&gt;&#9;&lt;/span&gt;&lt;span style=&quot;white-space: pre;&quot;&gt;&#9;&lt;/span&gt;&lt;span style=&quot;white-space: pre;&quot;&gt;&#9;&lt;/span&gt;&lt;/span&gt;20&lt;/span&gt;&lt;/span&gt;" style="rounded=1;whiteSpace=wrap;html=1;align=left;fontSize=14;fontFamily=Verdana;fontStyle=0" parent="1" vertex="1">
                    <mxGeometry x="852" y="160" width="780" height="30" as="geometry"/>
                </mxCell>
                <mxCell id="_0E7CPGjvZ48TcSPapoJ-6" value="&amp;nbsp; &lt;span style=&quot;white-space: pre;&quot;&gt;&#9;&lt;/span&gt;2.&lt;span style=&quot;white-space: pre;&quot;&gt;&#9;&lt;span style=&quot;white-space: pre;&quot;&gt;&#9;&lt;/span&gt;Max Mustermann 2&lt;span style=&quot;white-space: pre;&quot;&gt;&#9;&lt;/span&gt;&lt;span style=&quot;white-space: pre;&quot;&gt;&#9;&lt;/span&gt;&lt;span style=&quot;white-space: pre;&quot;&gt;&#9;&lt;/span&gt;&lt;span style=&quot;white-space: pre;&quot;&gt;&#9;&lt;/span&gt;&lt;span style=&quot;white-space: pre;&quot;&gt;&lt;span style=&quot;white-space: pre;&quot;&gt;&#9;&lt;/span&gt;&lt;span style=&quot;white-space: pre;&quot;&gt;&#9;&lt;/span&gt;1:30 Min.&lt;span style=&quot;white-space: pre;&quot;&gt;&#9;&lt;/span&gt;&lt;span style=&quot;white-space: pre;&quot;&gt;&#9;&lt;span style=&quot;white-space: pre;&quot;&gt;&#9;&lt;/span&gt;&lt;span style=&quot;white-space: pre;&quot;&gt;&#9;&lt;/span&gt;&lt;span style=&quot;white-space: pre;&quot;&gt;&#9;&lt;/span&gt;1&lt;/span&gt;8&lt;/span&gt;&lt;/span&gt;" style="rounded=1;whiteSpace=wrap;html=1;align=left;fontSize=14;fontFamily=Verdana;fontStyle=0" parent="1" vertex="1">
                    <mxGeometry x="852" y="190" width="780" height="30" as="geometry"/>
                </mxCell>
                <mxCell id="_0E7CPGjvZ48TcSPapoJ-7" value="&amp;nbsp; &lt;span style=&quot;white-space: pre;&quot;&gt;&#9;&lt;/span&gt;3.&lt;span style=&quot;white-space: pre;&quot;&gt;&#9;&lt;span style=&quot;white-space: pre;&quot;&gt;&#9;&lt;/span&gt;Max Mustermann 3&lt;span style=&quot;white-space: pre;&quot;&gt;&#9;&lt;/span&gt;&lt;span style=&quot;white-space: pre;&quot;&gt;&#9;&lt;/span&gt;&lt;span style=&quot;white-space: pre;&quot;&gt;&#9;&lt;/span&gt;&lt;span style=&quot;white-space: pre;&quot;&gt;&#9;&lt;/span&gt;&lt;span style=&quot;white-space: pre;&quot;&gt;&lt;span style=&quot;white-space: pre;&quot;&gt;&#9;&lt;/span&gt;&lt;span style=&quot;white-space: pre;&quot;&gt;&#9;&lt;/span&gt;1:40 Min.&lt;span style=&quot;white-space: pre;&quot;&gt;&#9;&lt;/span&gt;&lt;span style=&quot;white-space: pre;&quot;&gt;&#9;&lt;span style=&quot;white-space: pre;&quot;&gt;&#9;&lt;/span&gt;&lt;span style=&quot;white-space: pre;&quot;&gt;&#9;&lt;/span&gt;&lt;span style=&quot;white-space: pre;&quot;&gt;&#9;&lt;/span&gt;1&lt;/span&gt;7&lt;/span&gt;&lt;/span&gt;" style="rounded=1;whiteSpace=wrap;html=1;align=left;fontSize=14;fontFamily=Verdana;fontStyle=0" parent="1" vertex="1">
                    <mxGeometry x="852" y="220" width="780" height="30" as="geometry"/>
                </mxCell>
                <mxCell id="_0E7CPGjvZ48TcSPapoJ-8" value="&amp;nbsp; &lt;span style=&quot;white-space: pre;&quot;&gt;&#9;&lt;/span&gt;4.&lt;span style=&quot;white-space: pre;&quot;&gt;&#9;&lt;span style=&quot;white-space: pre;&quot;&gt;&#9;&lt;/span&gt;Max Mustermann 4&lt;span style=&quot;white-space: pre;&quot;&gt;&#9;&lt;/span&gt;&lt;span style=&quot;white-space: pre;&quot;&gt;&#9;&lt;/span&gt;&lt;span style=&quot;white-space: pre;&quot;&gt;&#9;&lt;/span&gt;&lt;span style=&quot;white-space: pre;&quot;&gt;&#9;&lt;/span&gt;&lt;span style=&quot;white-space: pre;&quot;&gt;&lt;span style=&quot;white-space: pre;&quot;&gt;&#9;&lt;/span&gt;&lt;span style=&quot;white-space: pre;&quot;&gt;&#9;&lt;/span&gt;1:42 Min.&lt;span style=&quot;white-space: pre;&quot;&gt;&#9;&lt;/span&gt;&lt;span style=&quot;white-space: pre;&quot;&gt;&#9;&lt;span style=&quot;white-space: pre;&quot;&gt;&#9;&lt;/span&gt;&lt;span style=&quot;white-space: pre;&quot;&gt;&#9;&lt;/span&gt;&lt;span style=&quot;white-space: pre;&quot;&gt;&#9;&lt;/span&gt;1&lt;/span&gt;7&lt;/span&gt;&lt;/span&gt;" style="rounded=1;whiteSpace=wrap;html=1;align=left;fontSize=14;fontFamily=Verdana;fontStyle=0" parent="1" vertex="1">
                    <mxGeometry x="852" y="250" width="780" height="30" as="geometry"/>
                </mxCell>
                <mxCell id="SJIpw3w2sQ6HHw1g7jWH-1" value="Schule" style="rounded=0;whiteSpace=wrap;html=1;fontStyle=1;fontSize=14;fontFamily=Verdana;" vertex="1" parent="1">
                    <mxGeometry x="1520" y="40" width="121" height="40" as="geometry"/>
                </mxCell>
                <mxCell id="SJIpw3w2sQ6HHw1g7jWH-2" value="Jahrgang" style="rounded=0;whiteSpace=wrap;html=1;fontStyle=1;fontSize=14;fontFamily=Verdana;" vertex="1" parent="1">
                    <mxGeometry x="841" y="40" width="121" height="40" as="geometry"/>
                </mxCell>
            </root>
        </mxGraphModel>
    </diagram>
    <diagram id="VUrkcm0NbUiRSmDEMTFm" name="Profil">
        <mxGraphModel dx="607" dy="884" grid="1" gridSize="10" guides="1" tooltips="1" connect="1" arrows="1" fold="1" page="1" pageScale="1" pageWidth="827" pageHeight="1169" math="0" shadow="0">
            <root>
                <mxCell id="0"/>
                <mxCell id="1" parent="0"/>
                <mxCell id="rxaXtmz5tMglxYO8UtQx-1" value="" style="rounded=0;whiteSpace=wrap;html=1;" vertex="1" parent="1">
                    <mxGeometry x="841" y="40" width="800" height="500" as="geometry"/>
                </mxCell>
                <mxCell id="rxaXtmz5tMglxYO8UtQx-2" value="&lt;h2&gt;&lt;b&gt;&lt;u&gt;Profil&lt;/u&gt;&lt;/b&gt;&lt;/h2&gt;&lt;div&gt;&lt;b&gt;Name:&amp;nbsp;&lt;/b&gt;&lt;/div&gt;&lt;div&gt;&lt;b&gt;&lt;br&gt;&lt;/b&gt;&lt;/div&gt;&lt;div&gt;&lt;b&gt;Username:&amp;nbsp;&lt;/b&gt;&lt;/div&gt;&lt;div&gt;&lt;b&gt;&lt;br&gt;&lt;/b&gt;&lt;/div&gt;&lt;div&gt;&lt;b&gt;E-Mail:&amp;nbsp;&lt;/b&gt;&lt;/div&gt;&lt;div&gt;&lt;b&gt;&lt;br&gt;&lt;/b&gt;&lt;/div&gt;&lt;div&gt;&lt;b&gt;&lt;br&gt;&lt;/b&gt;&lt;/div&gt;&lt;div&gt;&lt;b&gt;&lt;br&gt;&lt;/b&gt;&lt;/div&gt;&lt;div&gt;&lt;b&gt;Punkte:&amp;nbsp;&lt;/b&gt;&lt;/div&gt;&lt;div&gt;&lt;b&gt;&lt;br&gt;&lt;/b&gt;&lt;/div&gt;&lt;div&gt;&lt;b&gt;&lt;br&gt;&lt;/b&gt;&lt;/div&gt;" style="rounded=1;whiteSpace=wrap;html=1;fontFamily=Verdana;fontSize=14;labelBorderColor=none;verticalAlign=top;align=left;spacingTop=10;spacingLeft=20;spacingBottom=10;spacingRight=10;arcSize=7;" vertex="1" parent="1">
                    <mxGeometry x="861" y="50" width="760" height="420" as="geometry"/>
                </mxCell>
                <mxCell id="rxaXtmz5tMglxYO8UtQx-3" value="&amp;nbsp;Dashboard&lt;span style=&quot;white-space: pre;&quot;&gt;&#9;&lt;/span&gt;&lt;span style=&quot;white-space: pre;&quot;&gt;&#9;&lt;/span&gt;&lt;span style=&quot;white-space: pre;&quot;&gt;&#9;&lt;/span&gt;&lt;span style=&quot;white-space: pre;&quot;&gt;&#9;&lt;/span&gt;&lt;span style=&quot;white-space: pre;&quot;&gt;&#9;&lt;/span&gt;&lt;span style=&quot;white-space: pre;&quot;&gt;&#9;&lt;/span&gt;&lt;span style=&quot;white-space: pre;&quot;&gt;&#9;&lt;/span&gt;&amp;nbsp; Scoreboard&lt;span style=&quot;white-space: pre;&quot;&gt;&#9;&lt;/span&gt;&lt;span style=&quot;white-space: pre;&quot;&gt;&#9;&lt;span style=&quot;white-space: pre;&quot;&gt;&#9;&lt;/span&gt;&lt;/span&gt;&lt;span style=&quot;white-space: pre;&quot;&gt;&#9;&lt;/span&gt;&lt;span style=&quot;white-space: pre;&quot;&gt;&#9;&lt;/span&gt;&lt;span style=&quot;white-space: pre;&quot;&gt;&#9;&lt;/span&gt;&lt;span style=&quot;white-space: pre;&quot;&gt;&#9;&lt;span style=&quot;white-space: pre;&quot;&gt;&#9;&lt;/span&gt; &lt;/span&gt;&amp;nbsp; &lt;font color=&quot;#07eaed&quot;&gt;Profil&lt;/font&gt;" style="rounded=0;whiteSpace=wrap;html=1;fontSize=14;fontFamily=Verdana;fontStyle=1;align=left;" vertex="1" parent="1">
                    <mxGeometry x="841" y="490" width="800" height="50" as="geometry"/>
                </mxCell>
                <mxCell id="rxaXtmz5tMglxYO8UtQx-4" value="Bild" style="ellipse;whiteSpace=wrap;html=1;aspect=fixed;fontFamily=Verdana;fontSize=14;fontStyle=1" vertex="1" parent="1">
                    <mxGeometry x="1411" y="80" width="170" height="170" as="geometry"/>
                </mxCell>
            </root>
        </mxGraphModel>
    </diagram>
</mxfile>